<svg id="eBDkiKPXylO1" xmlns="http://www.w3.org/2000/svg" xmlns:xlink="http://www.w3.org/1999/xlink" viewBox="0 0 445 265" shape-rendering="geometricPrecision" text-rendering="geometricPrecision"><g id="eBDkiKPXylO2" display="none" transform="matrix(1 0 0 1 -50 -130)"><path id="eBDkiKPXylO3" d="M0,400.695652Q-0.000001,300.521739,99.33913,300.521739Q198.678261,300.521739,240,330.573912" transform="matrix(1 0 0 1 0 -0.695652)" fill="none" stroke="rgb(63,87,135)" stroke-width="0.96" stroke-miterlimit="1"/><path id="eBDkiKPXylO4" d="M0,400.695652Q-0.000001,300.521739,99.33913,300.521739Q198.678261,300.521739,240,330.573912" transform="matrix(1 0 0 1 220 -169.521739)" fill="none" stroke="rgb(63,87,135)" stroke-width="0.96" stroke-miterlimit="1"/><path id="eBDkiKPXylO5" d="" fill="none" stroke="rgb(63,87,135)" stroke-width="0.96" stroke-miterlimit="1"/><path id="eBDkiKPXylO6" d="M260,360Q330,320.173913,340,310Q350,299.826087,350,290Q350,250,350,240Q350,230,340,230L250,280Q240,289.652174,240,299.826087C240,310,240,350,240,360Q240,370,260,360" transform="matrix(1 0 0 1 0 10)" fill="none" stroke="rgb(63,87,135)" stroke-width="0.96" stroke-miterlimit="1"/><path id="eBDkiKPXylO7" d="M260,360Q330,320.173913,340,310Q350,299.826087,350,290Q350,250,350,240Q350,230,340,230L250,280Q240,289.652174,240,299.826087C240,310,240,350,240,360Q240,370,260,360" transform="matrix(1 0 0 1 130 -74.452179)" fill="none" stroke="rgb(63,87,135)" stroke-width="0.96" stroke-miterlimit="1"/><path id="eBDkiKPXylO8" d="M350,270Q364,263,370,260" fill="none" stroke="rgb(63,87,135)" stroke-width="0.96" stroke-miterlimit="1"/></g><g id="eBDkiKPXylO9" transform="matrix(1 0 0 1 -46 -121.83638)"><path id="eBDkiKPXylO10" d="M23.969583,357.673874Q44.64735,302.406607,143.986481,302.406607Q243.325612,302.406607,240,357.673874" transform="matrix(0.833216 0 0 0.888698 40.02816 33.066535)" fill="none" stroke="rgb(236,242,249)" stroke-width="10" stroke-linecap="round" stroke-miterlimit="1"/><path id="eBDkiKPXylO11" d="M23.969583,357.673874Q44.64735,302.406607,143.986481,302.406607Q243.325612,302.406607,240,357.673874" transform="matrix(0.833216 0 0 0.888698 279.940676 -116.806114)" fill="none" stroke="rgb(236,242,249)" stroke-width="10" stroke-linecap="round" stroke-miterlimit="1"/><path id="eBDkiKPXylO12" d="" fill="none" stroke="rgb(236,242,249)" stroke-width="10" stroke-linecap="round" stroke-miterlimit="1"/><path id="eBDkiKPXylO13" d="M260,360Q330,320.173913,340,310Q350,299.826087,350,290Q350,250,350,240Q350,230,340,230L250,280Q240,289.652174,240,299.826087C240,310,240,350,240,360Q240,370,260,360" transform="matrix(1 0 0 1 0 10)" fill="none" stroke="rgb(236,242,249)" stroke-width="10" stroke-linecap="round" stroke-miterlimit="1"/><path id="eBDkiKPXylO14" d="M260,360Q330,320.173913,340,310Q350,299.826087,350,290Q350,250,350,240Q350,230,340,230L250,280Q240,289.652174,240,299.826087C240,310,240,350,240,360Q240,370,260,360" transform="matrix(1 0 0 1 130 -74.452179)" fill="none" stroke="rgb(236,242,249)" stroke-width="10" stroke-linecap="round" stroke-miterlimit="1"/><path id="eBDkiKPXylO15" d="M350,270Q364,263,370,260" fill="none" stroke="rgb(236,242,249)" stroke-width="10" stroke-linecap="round" stroke-miterlimit="1"/></g><g id="eBDkiKPXylO16" transform="matrix(1 0 0 1 -50 -130)"><path id="eBDkiKPXylO17" d="M23.969583,357.673874Q44.64735,302.406607,143.986481,302.406607Q243.325612,302.406607,240,357.673874" transform="matrix(0.833216 0 0 0.888698 40.02816 33.066535)" fill="none" stroke="rgb(34,0,204)" stroke-width="10" stroke-linecap="round" stroke-miterlimit="1"/><path id="eBDkiKPXylO18" d="M23.969583,357.673874Q44.64735,302.406607,143.986481,302.406607Q243.325612,302.406607,240,357.673874" transform="matrix(0.833216 0 0 0.888698 279.940676 -116.806114)" fill="none" stroke="rgb(34,0,204)" stroke-width="10" stroke-linecap="round" stroke-miterlimit="1"/><path id="eBDkiKPXylO19" d="" fill="none" stroke="rgb(34,0,204)" stroke-width="10" stroke-linecap="round" stroke-miterlimit="1"/><path id="eBDkiKPXylO20" d="M260,360Q330,320.173913,340,310Q350,299.826087,350,290Q350,250,350,240Q350,230,340,230L250,280Q240,289.652174,240,299.826087C240,310,240,350,240,360Q240,370,260,360" transform="matrix(1 0 0 1 0 10)" fill="none" stroke="rgb(34,0,204)" stroke-width="10" stroke-linecap="round" stroke-miterlimit="1"/><path id="eBDkiKPXylO21" d="M260,360Q330,320.173913,340,310Q350,299.826087,350,290Q350,250,350,240Q350,230,340,230L250,280Q240,289.652174,240,299.826087C240,310,240,350,240,360Q240,370,260,360" transform="matrix(1 0 0 1 130 -74.452179)" fill="none" stroke="rgb(34,0,204)" stroke-width="10" stroke-linecap="round" stroke-miterlimit="1"/><path id="eBDkiKPXylO22" d="M350,270Q364,263,370,260" fill="none" stroke="rgb(34,0,204)" stroke-width="10" stroke-linecap="round" stroke-miterlimit="1"/></g></svg>