<?xml version="1.0" encoding="UTF-8"?>
<svg id="NICGIB-About" xmlns="http://www.w3.org/2000/svg" viewBox="0 0 284 284">
  <defs>
    <style>
      .cls-1 {
        stroke-width: 0px;
      }
    </style>
  </defs>
  <g id="_Group_Black_" data-name="&amp;lt;Group&amp;gt;(Black)">
    <path class="cls-1" d="m205.03,165c1.99,0,3.78-1.1,4.7-2.9l21.55-43.1h-11.18l-18,36h-24.82l18-36h-11.18l-23,46h43.94Z"/>
    <polygon class="cls-1" points="230.99 165 242.15 165 260.02 129 278.27 129 283.27 119 272.09 119 247.27 119 236.09 119 231.09 129 248.85 129 230.99 165"/>
    <path class="cls-1" d="m11.91,165l9-18h24.82l-9,18h11.18l23-46H23.73L.73,165h11.18Zm18-36h24.82l-4,8h-24.82l4-8Z"/>
    <path class="cls-1" d="m151.03,165c1.99,0,3.78-1.1,4.7-2.9l21.55-43.1h-47.18l-23,46h43.94Zm-14.76-36h24.82l-13,26h-24.82l13-26Z"/>
    <path class="cls-1" d="m98.43,165c1.77,0,3.41-.88,4.39-2.36.97-1.48,1.14-3.34.43-4.97l-6.02-13.9,21.79-15.2c1.89-1.32,2.7-3.68,2.01-5.88-.69-2.2-2.7-3.68-5.01-3.68h-38.29l-23,46h43.71Zm-14.53-36h17l-12.59,8.78h-.01c-2.02,1.43-2.78,4.11-1.8,6.39l4.69,10.82h-20.29l13-26Z"/>
  </g>
</svg>