<svg id="NICGIB-About" xmlns="http://www.w3.org/2000/svg" viewBox="0 0 284 284"><defs><style>.cls-1{stroke-width:0}</style></defs><g id="_Group_Black_" data-name="&amp;lt;Group&amp;gt;(Black)"><path class="cls-1" d="M205.03 165c1.99 0 3.78-1.1 4.7-2.9l21.55-43.1H220.1l-18 36h-24.82l18-36H184.1l-23 46h43.94zM230.99 165h11.16l17.87-36h18.25l5-10h-47.18l-5 10h17.76l-17.86 36zM11.91 165l9-18h24.82l-9 18h11.18l23-46H23.73l-23 46h11.18zm18-36h24.82l-4 8H25.91l4-8zM151.03 165c1.99 0 3.78-1.1 4.7-2.9l21.55-43.1H130.1l-23 46h43.94zm-14.76-36h24.82l-13 26h-24.82l13-26zM98.43 165c1.77 0 3.41-.88 4.39-2.36.97-1.48 1.14-3.34.43-4.97l-6.02-13.9 21.79-15.2a5.233 5.233 0 0 0 2.01-5.88c-.69-2.2-2.7-3.68-5.01-3.68H77.73l-23 46h43.71zM83.9 129h17l-12.59 8.78h-.01a5.296 5.296 0 0 0-1.8 6.39l4.69 10.82H70.9l13-26z"/></g></svg>