<svg id="NICGIB-Logo" xmlns="http://www.w3.org/2000/svg" viewBox="0 0 216 216"><defs><style>.cls-1{stroke-width:0}</style></defs><g id="_Group_Black_" data-name="&amp;lt;Group&amp;gt;(Black)"><path class="cls-1" d="M190.69 94.05 154.58 76h-1.18c-9.25 0-23 6.12-23 23h10c0-10.8 8.48-12.64 11.93-12.94L168.22 94h-17.91l-23 46h43.53c2 0 3.8-1.11 4.7-2.9l12.55-25.1h-21.05L162 122h9.91l-4 8H143.5l13-26h31.85c2.45 0 4.55-1.66 5.11-4.04.56-2.38-.57-4.81-2.76-5.9z"/><path class="cls-1" d="M136.31 112h-14.82l-5 10h14.82l5-10zM114.31 94 99.4 123.82 85.87 96.76s-.05-.07-.06-.1c-.09-.16-.19-.31-.29-.46-.08-.12-.16-.25-.25-.36-.1-.12-.22-.24-.34-.35-.12-.12-.23-.24-.36-.35-.11-.09-.23-.16-.35-.24-.16-.11-.31-.22-.48-.3-.03-.02-.06-.04-.1-.06L46.58 76.01H45.4c-9.25 0-23 6.12-23 23h10c0-10.8 8.48-12.64 11.93-12.94l30.36 15.18-19.38 38.76h11.18l14.91-29.82 13.3 26.61c.9 1.79 2.69 2.9 4.7 2.9s3.8-1.11 4.7-2.9l21.4-42.79h-11.18z"/></g></svg>